<?xml version="1.0" encoding="UTF-8" standalone="no"?>
<!DOCTYPE svg PUBLIC "-//W3C//DTD SVG 1.1//EN" "http://www.w3.org/Graphics/SVG/1.1/DTD/svg11.dtd">
<svg width="100%" height="100%" viewBox="0 0 16 16" version="1.1" xmlns="http://www.w3.org/2000/svg" xmlns:xlink="http://www.w3.org/1999/xlink" xml:space="preserve" xmlns:serif="http://www.serif.com/" style="fill-rule:evenodd;clip-rule:evenodd;stroke-linejoin:round;stroke-miterlimit:2;">
    <g>
        <g transform="matrix(6.12323e-17,1,-1.13729,6.96388e-17,17.3816,0.500853)">
            <rect x="1.5" y="2" width="5" height="12" style="fill:rgb(46,52,54);fill-opacity:0.35;fill-rule:nonzero;"/>
        </g>
        <path d="M3,1C1.355,1 0,2.355 0,4L0,12C0,13.645 1.355,15 3,15L13,15C14.645,15 16,13.645 16,12L16,4C16,2.355 14.645,1 13,1L3,1ZM3,3L13,3C13.57,3 14,3.43 14,4L14,12C14,12.57 13.57,13 13,13L3,13C2.43,13 2,12.57 2,12L2,4C2,3.43 2.43,3 3,3Z" style="fill:rgb(46,52,54);fill-rule:nonzero;"/>
        <g transform="matrix(6.12323e-17,1,-1.13313,6.93841e-17,17.3622,0.494357)">
            <rect x="6" y="2" width="1" height="12" style="fill:rgb(46,52,54);fill-rule:nonzero;"/>
        </g>
    </g>
</svg>
